<?xml version='1.0' encoding='UTF-8' standalone='no'?>
<!-- Created with Fritzing (http://www.fritzing.org/) -->
<svg xmlns="http://www.w3.org/2000/svg" y="0in" x="0in" baseProfile="tiny"  version="1.2" viewBox="0 0 56.8804 97.8782" height="1.35942in" width="0.790005in">
    <desc>
        <referenceFile>Adafruit 128x32 Pi OLED_pcb.svg</referenceFile>
    </desc>
    <desc >Fritzing footprint generated by brd2svg</desc>
    <g  gorn="0.1" id="silkscreen">
        <path fill="none"  stroke-width="0.576" stroke="white" d="M0.288377,90.7906L0.288377,0.317773L47.3272,0.317773A8.38195,8.38195,0,0,1,56.5924,8.19115L56.5924,42.1183L36.9929,42.1183L36.9929,90.432A6.912,6.912,0,0,1,29.8658,97.5902L6.91657,97.5902A6.48038,6.48038,0,0,1,0.288377,90.7906"/>
        <g >
            <title >element:LCD1</title>
            <g >
                <title >package:UG-2832HSWEG02_WRAPUNDER</title>
                <line x2="35.2435" stroke-linecap="round" y1="91.4702"  stroke-width="0.576" x1="35.2435" stroke="white" y2="6.43058"/>
                <line x2="3.14117" stroke-linecap="round" y1="91.4702"  stroke-width="0.576" x1="35.2435" stroke="white" y2="91.4702"/>
                <line x2="3.14117" stroke-linecap="round" y1="91.4702"  stroke-width="0.576" x1="3.14117" stroke="white" y2="6.43058"/>
                <line x2="3.14117" stroke-linecap="round" y1="6.43058"  stroke-width="0.576" x1="35.2435" stroke="white" y2="6.43058"/>
            </g>
        </g>
        <g >
            <title >element:U$8</title>
            <g >
                <title >package:ADAFRUIT_TEXT_20MM</title>
            </g>
        </g>
    </g>
    <g  gorn="0.2" id="copper1">
        <g  gorn="0.2.0" id="copper0">
            <circle cy="23.79" fill="none"  stroke-width="1.10268" r="1.96866" cx="49.3204" gorn="0.2.0.0" connectorname="+5V" id="connector1pad" stroke="#F7BD13"/>
            <circle cy="38.19" fill="none"  stroke-width="1.10268" r="1.96866" cx="42.1204" gorn="0.2.0.1" connectorname="SCL" id="connector4pad" stroke="#F7BD13"/>
            <circle cy="38.19" fill="none"  stroke-width="1.10268" r="1.96866" cx="49.3204" gorn="0.2.0.2" connectorname="GND" id="connector5pad" stroke="#F7BD13"/>
            <circle cy="30.99" fill="none"  stroke-width="1.10268" r="1.96866" cx="42.1204" gorn="0.2.0.3" connectorname="SDA" id="connector2pad" stroke="#F7BD13"/>
            <circle cy="9.89395" fill="none"  stroke-width="1.44" r="4.97197" cx="45.5764" gorn="0.2.0.4" connectorname="P$1" id="connector6pad" stroke="#F7BD13"/>
            <circle cy="30.99" fill="none"  stroke-width="1.10268" r="1.96866" cx="49.3204" gorn="0.2.0.5" connectorname="+5V" id="connector3pad" stroke="#F7BD13"/>
            <circle cy="23.79" fill="none"  stroke-width="1.10268" r="1.96866" cx="42.1204" gorn="0.2.0.6" connectorname="3.3V" id="connector0pad" stroke="#F7BD13"/>
        </g>
    </g>
</svg>
